<svg width="421" height="68" viewBox="0 0 421 68" fill="none" xmlns="http://www.w3.org/2000/svg">
<rect width="421" height="68" rx="10" fill="white"/>
<path d="M74.778 29.2L71.11 35.64V39H69.766V35.696L66.042 29.2H67.414L70.438 34.198L73.406 29.2H74.778ZM78.4614 31.552C79.1988 31.552 79.8521 31.7107 80.4214 32.028C81.0001 32.3453 81.4481 32.7887 81.7654 33.358C82.0921 33.918 82.2554 34.562 82.2554 35.29C82.2554 36.018 82.0921 36.6667 81.7654 37.236C81.4481 37.8053 81.0001 38.2487 80.4214 38.566C79.8521 38.8833 79.1988 39.042 78.4614 39.042C77.7148 39.042 77.0521 38.8833 76.4734 38.566C75.9041 38.2487 75.4561 37.81 75.1294 37.25C74.8121 36.6807 74.6534 36.0273 74.6534 35.29C74.6534 34.562 74.8121 33.918 75.1294 33.358C75.4561 32.7887 75.9041 32.3453 76.4734 32.028C77.0521 31.7107 77.7148 31.552 78.4614 31.552ZM78.4614 32.686C77.9761 32.686 77.5421 32.798 77.1594 33.022C76.7861 33.246 76.4921 33.5587 76.2774 33.96C76.0721 34.352 75.9694 34.8 75.9694 35.304C75.9694 35.8173 76.0721 36.2747 76.2774 36.676C76.4921 37.0773 76.7861 37.39 77.1594 37.614C77.5421 37.8287 77.9761 37.936 78.4614 37.936C78.9374 37.936 79.3621 37.8287 79.7354 37.614C80.1181 37.39 80.4121 37.0773 80.6174 36.676C80.8321 36.2747 80.9394 35.8173 80.9394 35.304C80.9394 34.8 80.8321 34.352 80.6174 33.96C80.4121 33.5587 80.1181 33.246 79.7354 33.022C79.3621 32.798 78.9374 32.686 78.4614 32.686ZM90.6287 31.594V39H89.3127V37.432C88.8274 38.4867 87.9127 39.0233 86.5687 39.042C85.7101 39.042 85.0381 38.79 84.5527 38.286C84.0674 37.7727 83.8247 37.068 83.8247 36.172V31.594H85.1407V35.822C85.1407 36.4473 85.3087 36.9373 85.6447 37.292C85.9901 37.6373 86.4614 37.81 87.0587 37.81C87.7494 37.8007 88.2954 37.558 88.6967 37.082C89.1074 36.5967 89.3127 35.9807 89.3127 35.234V31.594H90.6287ZM94.4705 33.19C94.7132 32.658 95.0585 32.2567 95.5065 31.986C95.9545 31.706 96.4865 31.5613 97.1025 31.552V32.812C96.3465 32.784 95.7352 32.98 95.2685 33.4C94.8019 33.82 94.5359 34.3847 94.4705 35.094V39H93.1685V31.594H94.4705V33.19ZM105.146 31.552C106.294 31.552 107.162 31.8927 107.75 32.574C108.338 33.246 108.632 34.184 108.632 35.388C108.632 35.5747 108.628 35.7147 108.618 35.808H102.766C102.869 36.4707 103.144 36.998 103.592 37.39C104.05 37.782 104.61 37.978 105.272 37.978C105.711 37.978 106.117 37.8987 106.49 37.74C106.873 37.5813 107.204 37.3573 107.484 37.068L108.198 37.81C107.834 38.202 107.396 38.5053 106.882 38.72C106.369 38.9347 105.8 39.042 105.174 39.042C104.446 39.042 103.798 38.888 103.228 38.58C102.668 38.2627 102.23 37.8193 101.912 37.25C101.604 36.6807 101.45 36.032 101.45 35.304C101.45 34.576 101.604 33.932 101.912 33.372C102.23 32.8027 102.668 32.3593 103.228 32.042C103.788 31.7153 104.428 31.552 105.146 31.552ZM107.456 34.8C107.419 34.128 107.195 33.6007 106.784 33.218C106.374 32.826 105.832 32.63 105.16 32.63C104.507 32.63 103.961 32.826 103.522 33.218C103.093 33.61 102.836 34.1373 102.752 34.8H107.456ZM119.971 31.552C120.82 31.552 121.487 31.8087 121.973 32.322C122.458 32.8353 122.701 33.5353 122.701 34.422V39H121.385V34.772C121.385 34.1467 121.212 33.6567 120.867 33.302C120.531 32.9473 120.064 32.77 119.467 32.77C118.767 32.7887 118.216 33.036 117.815 33.512C117.413 33.988 117.213 34.5993 117.213 35.346V39H115.897V34.772C115.897 34.1467 115.729 33.6567 115.393 33.302C115.057 32.9473 114.585 32.77 113.979 32.77C113.279 32.7887 112.723 33.036 112.313 33.512C111.911 33.988 111.711 34.5993 111.711 35.346V39H110.409V31.594H111.711V33.148C112.196 32.1027 113.115 31.5707 114.469 31.552C115.15 31.552 115.715 31.7153 116.163 32.042C116.62 32.3687 116.928 32.826 117.087 33.414C117.544 32.1913 118.505 31.5707 119.971 31.552ZM129.546 39V37.964C128.995 38.692 128.132 39.056 126.956 39.056C126.443 39.056 125.99 38.958 125.598 38.762C125.215 38.566 124.917 38.2953 124.702 37.95C124.497 37.6047 124.394 37.2173 124.394 36.788C124.394 36.1253 124.637 35.6027 125.122 35.22C125.617 34.828 126.303 34.6273 127.18 34.618H129.532V34.268C129.532 33.7453 129.369 33.344 129.042 33.064C128.725 32.7747 128.258 32.63 127.642 32.63C126.895 32.63 126.135 32.896 125.36 33.428L124.814 32.532C125.346 32.1867 125.836 31.9393 126.284 31.79C126.741 31.6313 127.283 31.552 127.908 31.552C128.832 31.552 129.546 31.7807 130.05 32.238C130.554 32.686 130.811 33.316 130.82 34.128L130.834 39H129.546ZM127.222 37.978C127.829 37.978 128.342 37.8333 128.762 37.544C129.191 37.2453 129.448 36.8533 129.532 36.368V35.626H127.362C126.774 35.626 126.335 35.7147 126.046 35.892C125.766 36.0693 125.626 36.3493 125.626 36.732C125.626 37.1147 125.771 37.418 126.06 37.642C126.349 37.866 126.737 37.978 127.222 37.978ZM133.159 31.594H134.461V39H133.159V31.594ZM133.803 28.64C134.036 28.64 134.227 28.7193 134.377 28.878C134.535 29.0367 134.615 29.2373 134.615 29.48C134.615 29.7227 134.535 29.9233 134.377 30.082C134.227 30.2407 134.036 30.32 133.803 30.32C133.569 30.32 133.373 30.2407 133.215 30.082C133.065 29.9233 132.991 29.7227 132.991 29.48C132.991 29.2373 133.065 29.0367 133.215 28.878C133.373 28.7193 133.569 28.64 133.803 28.64ZM137.071 28.612H138.373V39H137.071V28.612Z" fill="#39425D"/>
<path d="M35 31L40.4 35.05C40.7556 35.3167 41.2444 35.3167 41.6 35.05L47 31" stroke="#39425D" stroke-linecap="round"/>
<rect x="31.5" y="25.5" width="20" height="17" rx="4.5" stroke="#39425D"/>
</svg>
