<svg width="1356" height="490" viewBox="0 0 1356 490" fill="none" xmlns="http://www.w3.org/2000/svg">
<path d="M1210.2 476.61H1214.56V478.49H1210.2V483.432H1208.2V478.49H1203.84V476.61H1208.2V472.045H1210.2V476.61Z" fill="#E5E5E5"/>
<path d="M1245.2 441.61H1249.56V443.49H1245.2V448.432H1243.2V443.49H1238.84V441.61H1243.2V437.045H1245.2V441.61Z" fill="#E5E5E5"/>
<path d="M1280.2 336.61H1284.56V338.49H1280.2V343.432H1278.2V338.49H1273.84V336.61H1278.2V332.045H1280.2V336.61Z" fill="#E5E5E5"/>
<path d="M1280.2 371.61H1284.56V373.49H1280.2V378.432H1278.2V373.49H1273.84V371.61H1278.2V367.045H1280.2V371.61Z" fill="#E5E5E5"/>
<path d="M1280.2 406.61H1284.56V408.49H1280.2V413.432H1278.2V408.49H1273.84V406.61H1278.2V402.045H1280.2V406.61Z" fill="#6246E5"/>
<path d="M1280.2 441.61H1284.56V443.49H1280.2V448.432H1278.2V443.49H1273.84V441.61H1278.2V437.045H1280.2V441.61Z" fill="#E5E5E5"/>
<path d="M1280.2 476.61H1284.56V478.49H1280.2V483.432H1278.2V478.49H1273.84V476.61H1278.2V472.045H1280.2V476.61Z" fill="#E5E5E5"/>
<path d="M1315.2 336.61H1319.56V338.49H1315.2V343.432H1313.2V338.49H1308.84V336.61H1313.2V332.045H1315.2V336.61Z" fill="#E5E5E5"/>
<path d="M1315.2 371.61H1319.56V373.49H1315.2V378.432H1313.2V373.49H1308.84V371.61H1313.2V367.045H1315.2V371.61Z" fill="#E5E5E5"/>
<path d="M1315.2 406.61H1319.56V408.49H1315.2V413.432H1313.2V408.49H1308.84V406.61H1313.2V402.045H1315.2V406.61Z" fill="#E5E5E5"/>
<path d="M1315.2 441.61H1319.56V443.49H1315.2V448.432H1313.2V443.49H1308.84V441.61H1313.2V437.045H1315.2V441.61Z" fill="#E5E5E5"/>
<path d="M1315.2 476.61H1319.56V478.49H1315.2V483.432H1313.2V478.49H1308.84V476.61H1313.2V472.045H1315.2V476.61Z" fill="#E5E5E5"/>
<path d="M1350.2 336.61H1354.56V338.49H1350.2V343.432H1348.2V338.49H1343.84V336.61H1348.2V332.045H1350.2V336.61Z" fill="#FF7152"/>
<path d="M1350.2 371.61H1354.56V373.49H1350.2V378.432H1348.2V373.49H1343.84V371.61H1348.2V367.045H1350.2V371.61Z" fill="#E5E5E5"/>
<path d="M1350.2 406.61H1354.56V408.49H1350.2V413.432H1348.2V408.49H1343.84V406.61H1348.2V402.045H1350.2V406.61Z" fill="#E5E5E5"/>
<path d="M1350.2 441.61H1354.56V443.49H1350.2V448.432H1348.2V443.49H1343.84V441.61H1348.2V437.045H1350.2V441.61Z" fill="#E5E5E5"/>
<path d="M1350.2 476.61H1354.56V478.49H1350.2V483.432H1348.2V478.49H1343.84V476.61H1348.2V472.045H1350.2V476.61Z" fill="#E5E5E5"/>
<path opacity="0.2" d="M1257 33C1257 21.9543 1248.05 13 1237 13H216C144.755 13 87 70.7553 87 142V400C87 411.046 95.9543 420 107 420H1237C1248.05 420 1257 411.046 1257 400V33Z" fill="#DFD7F9"/>
<g opacity="0.1">
<mask id="mask0_1_440" style="mask-type:alpha" maskUnits="userSpaceOnUse" x="993" y="13" width="264" height="352">
<path d="M993.5 13.5H1233C1245.98 13.5 1256.5 24.0213 1256.5 37V364.022H1043C1015.66 364.022 993.5 341.86 993.5 314.522V13.5Z" fill="url(#paint0_linear_1_440)" stroke="#6246E5"/>
</mask>
<g mask="url(#mask0_1_440)">
<circle cx="1232.02" cy="191.32" r="91.8033" stroke="#6246E5"/>
<circle cx="1224.73" cy="181.604" r="102.734" stroke="#6246E5"/>
<circle cx="1218.66" cy="173.71" r="112.45" stroke="#6246E5"/>
<circle cx="1212.58" cy="162.171" r="120.952" stroke="#6246E5"/>
<circle cx="1206.81" cy="150.937" r="129.15" stroke="#6246E5"/>
<circle cx="1197.1" cy="138.185" r="141.902" stroke="#6246E5"/>
</g>
</g>
<g opacity="0.1">
<mask id="mask1_1_440" style="mask-type:alpha" maskUnits="userSpaceOnUse" x="0" y="59" width="480" height="361">
<rect x="479.5" y="59.5" width="360" height="479" transform="rotate(90 479.5 59.5)" fill="url(#paint1_linear_1_440)" stroke="#6246E5"/>
</mask>
<g mask="url(#mask1_1_440)">
<path d="M236.505 512.92C167.172 512.92 110.966 456.635 110.966 387.202C110.966 317.769 167.172 261.484 236.505 261.484C305.838 261.484 362.045 317.769 362.045 387.202C362.045 456.635 305.838 512.92 236.505 512.92Z" stroke="#6246E5"/>
<path d="M249.773 517.902C172.197 517.902 109.307 454.925 109.307 377.237C109.307 299.55 172.197 236.573 249.773 236.573C327.349 236.573 390.238 299.55 390.238 377.237C390.238 454.925 327.349 517.902 249.773 517.902Z" stroke="#6246E5"/>
<path d="M260.552 522.885C175.649 522.885 106.82 453.959 106.82 368.934C106.82 283.909 175.649 214.983 260.552 214.983C345.456 214.983 414.285 283.909 414.285 368.934C414.285 453.959 345.456 522.885 260.552 522.885Z" stroke="#6246E5"/>
<path d="M276.308 526.206C184.993 526.206 110.966 452.076 110.966 360.63C110.966 269.184 184.993 195.054 276.308 195.054C367.622 195.054 441.649 269.184 441.649 360.63C441.649 452.076 367.622 526.206 276.308 526.206Z" stroke="#6246E5"/>
<path d="M291.648 529.528C194.15 529.528 115.112 450.378 115.112 352.742C115.112 255.105 194.15 175.955 291.648 175.955C389.145 175.955 468.183 255.105 468.183 352.742C468.183 450.379 389.145 529.528 291.648 529.528Z" stroke="#6246E5"/>
<path d="M309.061 533.68C201.947 533.68 115.112 446.723 115.112 339.456C115.112 232.188 201.947 145.231 309.061 145.231C416.175 145.231 503.01 232.188 503.01 339.456C503.01 446.723 416.175 533.68 309.061 533.68Z" stroke="#6246E5"/>
</g>
</g>
<rect x="339" y="274" width="421" height="68" rx="10" fill="white"/>
<path d="M413.778 303.2L410.11 309.64V313H408.766V309.696L405.042 303.2H406.414L409.438 308.198L412.406 303.2H413.778ZM417.461 305.552C418.199 305.552 418.852 305.711 419.421 306.028C420 306.345 420.448 306.789 420.765 307.358C421.092 307.918 421.255 308.562 421.255 309.29C421.255 310.018 421.092 310.667 420.765 311.236C420.448 311.805 420 312.249 419.421 312.566C418.852 312.883 418.199 313.042 417.461 313.042C416.715 313.042 416.052 312.883 415.473 312.566C414.904 312.249 414.456 311.81 414.129 311.25C413.812 310.681 413.653 310.027 413.653 309.29C413.653 308.562 413.812 307.918 414.129 307.358C414.456 306.789 414.904 306.345 415.473 306.028C416.052 305.711 416.715 305.552 417.461 305.552ZM417.461 306.686C416.976 306.686 416.542 306.798 416.159 307.022C415.786 307.246 415.492 307.559 415.277 307.96C415.072 308.352 414.969 308.8 414.969 309.304C414.969 309.817 415.072 310.275 415.277 310.676C415.492 311.077 415.786 311.39 416.159 311.614C416.542 311.829 416.976 311.936 417.461 311.936C417.937 311.936 418.362 311.829 418.735 311.614C419.118 311.39 419.412 311.077 419.617 310.676C419.832 310.275 419.939 309.817 419.939 309.304C419.939 308.8 419.832 308.352 419.617 307.96C419.412 307.559 419.118 307.246 418.735 307.022C418.362 306.798 417.937 306.686 417.461 306.686ZM429.629 305.594V313H428.313V311.432C427.827 312.487 426.913 313.023 425.569 313.042C424.71 313.042 424.038 312.79 423.553 312.286C423.067 311.773 422.825 311.068 422.825 310.172V305.594H424.141V309.822C424.141 310.447 424.309 310.937 424.645 311.292C424.99 311.637 425.461 311.81 426.059 311.81C426.749 311.801 427.295 311.558 427.697 311.082C428.107 310.597 428.313 309.981 428.313 309.234V305.594H429.629ZM433.471 307.19C433.713 306.658 434.059 306.257 434.507 305.986C434.955 305.706 435.487 305.561 436.103 305.552V306.812C435.347 306.784 434.735 306.98 434.269 307.4C433.802 307.82 433.536 308.385 433.471 309.094V313H432.169V305.594H433.471V307.19ZM444.146 305.552C445.294 305.552 446.162 305.893 446.75 306.574C447.338 307.246 447.632 308.184 447.632 309.388C447.632 309.575 447.628 309.715 447.618 309.808H441.766C441.869 310.471 442.144 310.998 442.592 311.39C443.05 311.782 443.61 311.978 444.272 311.978C444.711 311.978 445.117 311.899 445.49 311.74C445.873 311.581 446.204 311.357 446.484 311.068L447.198 311.81C446.834 312.202 446.396 312.505 445.882 312.72C445.369 312.935 444.8 313.042 444.174 313.042C443.446 313.042 442.798 312.888 442.228 312.58C441.668 312.263 441.23 311.819 440.912 311.25C440.604 310.681 440.45 310.032 440.45 309.304C440.45 308.576 440.604 307.932 440.912 307.372C441.23 306.803 441.668 306.359 442.228 306.042C442.788 305.715 443.428 305.552 444.146 305.552ZM446.456 308.8C446.419 308.128 446.195 307.601 445.784 307.218C445.374 306.826 444.832 306.63 444.16 306.63C443.507 306.63 442.961 306.826 442.522 307.218C442.093 307.61 441.836 308.137 441.752 308.8H446.456ZM458.971 305.552C459.82 305.552 460.487 305.809 460.973 306.322C461.458 306.835 461.701 307.535 461.701 308.422V313H460.385V308.772C460.385 308.147 460.212 307.657 459.867 307.302C459.531 306.947 459.064 306.77 458.467 306.77C457.767 306.789 457.216 307.036 456.815 307.512C456.413 307.988 456.213 308.599 456.213 309.346V313H454.897V308.772C454.897 308.147 454.729 307.657 454.393 307.302C454.057 306.947 453.585 306.77 452.979 306.77C452.279 306.789 451.723 307.036 451.313 307.512C450.911 307.988 450.711 308.599 450.711 309.346V313H449.409V305.594H450.711V307.148C451.196 306.103 452.115 305.571 453.469 305.552C454.15 305.552 454.715 305.715 455.163 306.042C455.62 306.369 455.928 306.826 456.087 307.414C456.544 306.191 457.505 305.571 458.971 305.552ZM468.546 313V311.964C467.995 312.692 467.132 313.056 465.956 313.056C465.443 313.056 464.99 312.958 464.598 312.762C464.215 312.566 463.917 312.295 463.702 311.95C463.497 311.605 463.394 311.217 463.394 310.788C463.394 310.125 463.637 309.603 464.122 309.22C464.617 308.828 465.303 308.627 466.18 308.618H468.532V308.268C468.532 307.745 468.369 307.344 468.042 307.064C467.725 306.775 467.258 306.63 466.642 306.63C465.895 306.63 465.135 306.896 464.36 307.428L463.814 306.532C464.346 306.187 464.836 305.939 465.284 305.79C465.741 305.631 466.283 305.552 466.908 305.552C467.832 305.552 468.546 305.781 469.05 306.238C469.554 306.686 469.811 307.316 469.82 308.128L469.834 313H468.546ZM466.222 311.978C466.829 311.978 467.342 311.833 467.762 311.544C468.191 311.245 468.448 310.853 468.532 310.368V309.626H466.362C465.774 309.626 465.335 309.715 465.046 309.892C464.766 310.069 464.626 310.349 464.626 310.732C464.626 311.115 464.771 311.418 465.06 311.642C465.349 311.866 465.737 311.978 466.222 311.978ZM472.159 305.594H473.461V313H472.159V305.594ZM472.803 302.64C473.036 302.64 473.227 302.719 473.377 302.878C473.535 303.037 473.615 303.237 473.615 303.48C473.615 303.723 473.535 303.923 473.377 304.082C473.227 304.241 473.036 304.32 472.803 304.32C472.569 304.32 472.373 304.241 472.215 304.082C472.065 303.923 471.991 303.723 471.991 303.48C471.991 303.237 472.065 303.037 472.215 302.878C472.373 302.719 472.569 302.64 472.803 302.64ZM476.071 302.612H477.373V313H476.071V302.612Z" fill="#39425D"/>
<path d="M374 305L379.4 309.05C379.756 309.317 380.244 309.317 380.6 309.05L386 305" stroke="#39425D" stroke-linecap="round"/>
<rect x="370.5" y="299.5" width="20" height="17" rx="4.5" stroke="#39425D"/>
<rect x="784" y="274" width="180" height="68" rx="10" fill="url(#paint2_linear_1_440)"/>
<path d="M842.648 310.705C842.648 311.784 842.258 312.63 841.478 313.245C840.697 313.859 839.621 314.166 838.249 314.166C836.876 314.166 835.753 313.953 834.878 313.527V311.651C835.432 311.911 836.018 312.116 836.638 312.265C837.264 312.415 837.845 312.489 838.381 312.489C839.167 312.489 839.745 312.34 840.116 312.041C840.493 311.742 840.681 311.341 840.681 310.837C840.681 310.384 840.509 309.999 840.166 309.684C839.823 309.368 839.115 308.995 838.041 308.563C836.934 308.115 836.154 307.603 835.7 307.027C835.246 306.452 835.02 305.76 835.02 304.952C835.02 303.939 835.379 303.143 836.099 302.562C836.818 301.98 837.784 301.69 838.996 301.69C840.158 301.69 841.314 301.944 842.465 302.454L841.834 304.072C840.755 303.618 839.792 303.392 838.946 303.392C838.304 303.392 837.817 303.533 837.485 303.815C837.153 304.092 836.987 304.46 836.987 304.919C836.987 305.234 837.053 305.506 837.186 305.732C837.319 305.954 837.537 306.164 837.842 306.363C838.146 306.562 838.694 306.825 839.485 307.152C840.376 307.523 841.029 307.868 841.444 308.189C841.859 308.51 842.164 308.873 842.357 309.277C842.551 309.681 842.648 310.157 842.648 310.705ZM851.264 314L850.99 312.796H850.891C850.619 313.222 850.232 313.557 849.729 313.801C849.23 314.044 848.66 314.166 848.019 314.166C846.906 314.166 846.076 313.889 845.528 313.336C844.98 312.783 844.707 311.944 844.707 310.821V304.819H846.674V310.48C846.674 311.183 846.818 311.712 847.105 312.066C847.393 312.415 847.844 312.589 848.458 312.589C849.278 312.589 849.878 312.345 850.26 311.858C850.647 311.366 850.841 310.544 850.841 309.393V304.819H852.8V314H851.264ZM860.271 304.653C861.416 304.653 862.307 305.068 862.943 305.898C863.585 306.729 863.906 307.893 863.906 309.393C863.906 310.898 863.583 312.071 862.935 312.913C862.288 313.748 861.388 314.166 860.237 314.166C859.075 314.166 858.173 313.748 857.531 312.913H857.398L857.042 314H855.581V301.084H857.531V304.155C857.531 304.382 857.52 304.72 857.498 305.168C857.476 305.616 857.459 305.901 857.448 306.023H857.531C858.151 305.11 859.064 304.653 860.271 304.653ZM859.764 306.247C858.978 306.247 858.411 306.479 858.062 306.944C857.719 307.404 857.542 308.176 857.531 309.26V309.393C857.531 310.511 857.708 311.322 858.062 311.825C858.417 312.323 858.995 312.572 859.797 312.572C860.489 312.572 861.012 312.298 861.366 311.75C861.726 311.203 861.906 310.411 861.906 309.376C861.906 307.29 861.192 306.247 859.764 306.247ZM872.34 311.385C872.34 312.282 872.013 312.971 871.36 313.452C870.707 313.928 869.772 314.166 868.555 314.166C867.332 314.166 866.349 313.981 865.608 313.61V311.925C866.687 312.423 867.691 312.672 868.621 312.672C869.822 312.672 870.422 312.309 870.422 311.584C870.422 311.352 870.356 311.158 870.223 311.003C870.09 310.848 869.872 310.688 869.567 310.522C869.263 310.356 868.84 310.168 868.297 309.958C867.24 309.548 866.524 309.139 866.147 308.729C865.777 308.319 865.591 307.788 865.591 307.135C865.591 306.349 865.907 305.741 866.538 305.309C867.174 304.872 868.037 304.653 869.127 304.653C870.207 304.653 871.228 304.872 872.19 305.309L871.56 306.778C870.569 306.369 869.736 306.164 869.061 306.164C868.032 306.164 867.517 306.457 867.517 307.044C867.517 307.332 867.65 307.575 867.916 307.774C868.187 307.974 868.773 308.248 869.675 308.596C870.433 308.889 870.984 309.158 871.327 309.401C871.67 309.645 871.925 309.927 872.091 310.248C872.257 310.563 872.34 310.943 872.34 311.385ZM878.159 314.166C876.77 314.166 875.713 313.762 874.988 312.954C874.268 312.141 873.909 310.976 873.909 309.459C873.909 307.916 874.285 306.729 875.038 305.898C875.796 305.068 876.889 304.653 878.316 304.653C879.285 304.653 880.156 304.833 880.931 305.193L880.342 306.762C879.517 306.441 878.837 306.28 878.3 306.28C876.712 306.28 875.917 307.334 875.917 309.443C875.917 310.472 876.114 311.247 876.507 311.767C876.905 312.282 877.486 312.539 878.25 312.539C879.119 312.539 879.941 312.323 880.715 311.892V313.593C880.367 313.798 879.993 313.945 879.595 314.033C879.202 314.122 878.723 314.166 878.159 314.166ZM887.53 304.653C887.923 304.653 888.247 304.681 888.501 304.736L888.311 306.554C888.034 306.488 887.746 306.455 887.447 306.455C886.667 306.455 886.033 306.709 885.546 307.218C885.065 307.727 884.824 308.389 884.824 309.202V314H882.874V304.819H884.401L884.658 306.438H884.758C885.062 305.89 885.458 305.456 885.945 305.135C886.437 304.814 886.966 304.653 887.53 304.653ZM892.162 314H890.211V304.819H892.162V314ZM890.095 302.387C890.095 302.039 890.189 301.77 890.377 301.582C890.571 301.394 890.845 301.3 891.199 301.3C891.542 301.3 891.808 301.394 891.996 301.582C892.19 301.77 892.287 302.039 892.287 302.387C892.287 302.719 892.19 302.982 891.996 303.176C891.808 303.364 891.542 303.458 891.199 303.458C890.845 303.458 890.571 303.364 890.377 303.176C890.189 302.982 890.095 302.719 890.095 302.387ZM899.649 304.653C900.795 304.653 901.686 305.068 902.322 305.898C902.964 306.729 903.285 307.893 903.285 309.393C903.285 310.898 902.961 312.071 902.314 312.913C901.667 313.748 900.767 314.166 899.616 314.166C898.454 314.166 897.552 313.748 896.91 312.913H896.777L896.42 314H894.959V301.084H896.91V304.155C896.91 304.382 896.899 304.72 896.877 305.168C896.855 305.616 896.838 305.901 896.827 306.023H896.91C897.53 305.11 898.443 304.653 899.649 304.653ZM899.143 306.247C898.357 306.247 897.79 306.479 897.441 306.944C897.098 307.404 896.921 308.176 896.91 309.26V309.393C896.91 310.511 897.087 311.322 897.441 311.825C897.796 312.323 898.374 312.572 899.176 312.572C899.868 312.572 900.391 312.298 900.745 311.75C901.105 311.203 901.285 310.411 901.285 309.376C901.285 307.29 900.571 306.247 899.143 306.247ZM909.561 314.166C908.133 314.166 907.015 313.751 906.207 312.921C905.405 312.085 905.003 310.937 905.003 309.476C905.003 307.976 905.377 306.798 906.124 305.94C906.871 305.082 907.898 304.653 909.204 304.653C910.416 304.653 911.373 305.021 912.076 305.757C912.778 306.493 913.13 307.506 913.13 308.795V309.85H907.012C907.04 310.741 907.281 311.427 907.734 311.908C908.188 312.384 908.827 312.622 909.652 312.622C910.194 312.622 910.698 312.572 911.163 312.473C911.633 312.368 912.137 312.196 912.673 311.958V313.543C912.197 313.77 911.716 313.931 911.229 314.025C910.742 314.119 910.186 314.166 909.561 314.166ZM909.204 306.131C908.584 306.131 908.086 306.327 907.709 306.72C907.339 307.113 907.117 307.686 907.045 308.438H911.212C911.201 307.68 911.019 307.108 910.665 306.72C910.31 306.327 909.823 306.131 909.204 306.131Z" fill="white"/>
<path d="M261.8 124.334C261.8 116.216 249.986 118.79 249.986 114.17C249.986 112.289 251.339 111.398 253.154 111.464C255.134 111.497 256.355 112.685 256.454 114.203H261.536C261.239 110.045 258.005 107.636 253.286 107.636C248.534 107.636 245.168 110.144 245.168 114.302C245.135 122.651 257.015 119.648 257.015 124.631C257.015 126.281 255.728 127.436 253.55 127.436C251.405 127.436 250.184 126.215 250.052 124.367H245.102C245.168 128.723 248.864 131.231 253.649 131.231C258.896 131.231 261.8 127.964 261.8 124.334ZM283.065 112.718H278.412V122.783C278.412 125.72 276.828 127.304 274.32 127.304C271.878 127.304 270.261 125.72 270.261 122.783V112.718H265.641V123.443C265.641 128.459 268.71 131.231 272.967 131.231C275.244 131.231 277.257 130.241 278.412 128.69V131H283.065V112.718ZM292.243 115.391V106.58H287.623V131H292.243V128.393C293.365 129.977 295.411 131.297 298.282 131.297C302.968 131.297 306.631 127.502 306.631 121.793C306.631 116.084 302.968 112.421 298.282 112.421C295.51 112.421 293.365 113.708 292.243 115.391ZM301.912 121.793C301.912 125.258 299.569 127.238 297.061 127.238C294.586 127.238 292.243 125.324 292.243 121.859C292.243 118.394 294.586 116.48 297.061 116.48C299.569 116.48 301.912 118.328 301.912 121.793ZM324.178 125.786C324.046 119.087 313.915 121.166 313.915 117.833C313.915 116.777 314.806 116.084 316.522 116.084C318.337 116.084 319.459 117.041 319.591 118.46H324.013C323.749 114.83 321.076 112.421 316.654 112.421C312.133 112.421 309.427 114.863 309.427 117.899C309.427 124.598 319.756 122.519 319.756 125.786C319.756 126.842 318.766 127.667 316.951 127.667C315.103 127.667 313.816 126.611 313.651 125.225H308.998C309.196 128.624 312.397 131.297 316.984 131.297C321.439 131.297 324.178 128.921 324.178 125.786ZM326.783 121.859C326.783 127.601 330.545 131.297 335.825 131.297C340.379 131.297 343.448 128.723 344.438 124.829H339.455C338.894 126.479 337.706 127.337 335.792 127.337C333.218 127.337 331.502 125.423 331.502 121.859C331.502 118.295 333.218 116.348 335.792 116.348C337.706 116.348 338.927 117.338 339.455 118.889H344.438C343.448 114.797 340.379 112.421 335.825 112.421C330.545 112.421 326.783 116.117 326.783 121.859ZM352.442 121.892C352.442 118.361 354.092 117.305 356.831 117.305H358.052V112.454C355.511 112.454 353.597 113.675 352.442 115.556V112.718H347.822V131H352.442V121.892ZM361.164 131H365.784V112.718H361.164V131ZM363.507 110.54C365.124 110.54 366.345 109.352 366.345 107.834C366.345 106.316 365.124 105.128 363.507 105.128C361.857 105.128 360.669 106.316 360.669 107.834C360.669 109.352 361.857 110.54 363.507 110.54ZM374.969 115.391V106.58H370.349V131H374.969V128.393C376.091 129.977 378.137 131.297 381.008 131.297C385.694 131.297 389.357 127.502 389.357 121.793C389.357 116.084 385.694 112.421 381.008 112.421C378.236 112.421 376.091 113.708 374.969 115.391ZM384.638 121.793C384.638 125.258 382.295 127.238 379.787 127.238C377.312 127.238 374.969 125.324 374.969 121.859C374.969 118.394 377.312 116.48 379.787 116.48C382.295 116.48 384.638 118.328 384.638 121.793ZM400.568 116.216C402.944 116.216 404.858 117.734 404.924 120.143H396.245C396.608 117.635 398.357 116.216 400.568 116.216ZM409.247 125.258H404.264C403.67 126.479 402.581 127.469 400.601 127.469C398.291 127.469 396.443 125.951 396.212 123.245H409.577C409.676 122.651 409.709 122.057 409.709 121.463C409.709 116.018 405.98 112.421 400.7 112.421C395.288 112.421 391.526 116.084 391.526 121.859C391.526 127.601 395.387 131.297 400.7 131.297C405.221 131.297 408.257 128.624 409.247 125.258ZM421.67 125.324C421.67 129.515 424.013 131 427.511 131H430.415V127.106H428.27C426.818 127.106 426.323 126.578 426.323 125.357V116.513H430.415V112.718H426.323V108.197H421.67V112.718H419.492V116.513H421.67V125.324ZM451.393 121.859C451.393 116.084 447.268 112.421 441.988 112.421C436.708 112.421 432.583 116.084 432.583 121.859C432.583 127.601 436.576 131.297 441.856 131.297C447.169 131.297 451.393 127.601 451.393 121.859ZM437.269 121.859C437.269 118.196 439.48 116.447 441.922 116.447C444.364 116.447 446.641 118.196 446.641 121.859C446.641 125.489 444.298 127.271 441.856 127.271C439.381 127.271 437.269 125.489 437.269 121.859ZM461.458 121.793C461.458 127.502 465.154 131.297 469.807 131.297C472.678 131.297 474.757 129.878 475.846 128.294V131.132C475.846 134.531 473.866 135.983 471.325 135.983C469.015 135.983 467.299 134.894 466.837 133.244H462.25C462.712 137.435 466.309 140.009 471.457 140.009C477.463 140.009 480.499 136.082 480.499 131.132V112.718H475.846V115.325C474.757 113.741 472.678 112.421 469.807 112.421C465.154 112.421 461.458 116.084 461.458 121.793ZM475.846 121.859C475.846 125.324 473.536 127.238 470.995 127.238C468.52 127.238 466.177 125.258 466.177 121.793C466.177 118.328 468.52 116.48 470.995 116.48C473.536 116.48 475.846 118.394 475.846 121.859ZM492.865 116.216C495.241 116.216 497.155 117.734 497.221 120.143H488.542C488.905 117.635 490.654 116.216 492.865 116.216ZM501.544 125.258H496.561C495.967 126.479 494.878 127.469 492.898 127.469C490.588 127.469 488.74 125.951 488.509 123.245H501.874C501.973 122.651 502.006 122.057 502.006 121.463C502.006 116.018 498.277 112.421 492.997 112.421C487.585 112.421 483.823 116.084 483.823 121.859C483.823 127.601 487.684 131.297 492.997 131.297C497.518 131.297 500.554 128.624 501.544 125.258ZM506.104 125.324C506.104 129.515 508.447 131 511.945 131H514.849V127.106H512.704C511.252 127.106 510.757 126.578 510.757 125.357V116.513H514.849V112.718H510.757V108.197H506.104V112.718H503.926V116.513H506.104V125.324ZM526.035 131H530.655V112.718H526.035V131ZM528.378 110.54C529.995 110.54 531.216 109.352 531.216 107.834C531.216 106.316 529.995 105.128 528.378 105.128C526.728 105.128 525.54 106.316 525.54 107.834C525.54 109.352 526.728 110.54 528.378 110.54ZM548.024 131H552.644V120.275C552.644 115.226 549.608 112.454 545.351 112.454C543.008 112.454 541.028 113.444 539.84 114.995V112.718H535.22V131H539.84V120.902C539.84 117.965 541.457 116.381 543.965 116.381C546.407 116.381 548.024 117.965 548.024 120.902V131ZM557.532 131H562.218V116.513H565.419V112.718H562.218V111.959C562.218 109.913 562.977 109.187 565.221 109.253V105.359C560.073 105.227 557.532 107.306 557.532 111.794V112.718H555.453V116.513H557.532V131ZM586.068 121.859C586.068 116.084 581.943 112.421 576.663 112.421C571.383 112.421 567.258 116.084 567.258 121.859C567.258 127.601 571.251 131.297 576.531 131.297C581.844 131.297 586.068 127.601 586.068 121.859ZM571.944 121.859C571.944 118.196 574.155 116.447 576.597 116.447C579.039 116.447 581.316 118.196 581.316 121.859C581.316 125.489 578.973 127.271 576.531 127.271C574.056 127.271 571.944 125.489 571.944 121.859ZM594.077 121.892C594.077 118.361 595.727 117.305 598.466 117.305H599.687V112.454C597.146 112.454 595.232 113.675 594.077 115.556V112.718H589.457V131H594.077V121.892ZM628.374 131H632.994V120.275C632.994 115.226 629.892 112.454 625.503 112.454C622.83 112.454 620.421 113.873 619.233 115.952C617.979 113.675 615.636 112.454 612.798 112.454C610.521 112.454 608.574 113.411 607.419 114.929V112.718H602.799V131H607.419V120.902C607.419 117.998 609.036 116.48 611.544 116.48C613.986 116.48 615.603 117.998 615.603 120.902V131H620.223V120.902C620.223 117.998 621.84 116.48 624.315 116.48C626.757 116.48 628.374 117.998 628.374 120.902V131ZM636.19 121.793C636.19 127.502 639.886 131.297 644.506 131.297C647.41 131.297 649.489 129.911 650.578 128.327V131H655.231V112.718H650.578V115.325C649.489 113.807 647.476 112.421 644.539 112.421C639.886 112.421 636.19 116.084 636.19 121.793ZM650.578 121.859C650.578 125.324 648.268 127.238 645.727 127.238C643.252 127.238 640.909 125.258 640.909 121.793C640.909 118.328 643.252 116.48 645.727 116.48C648.268 116.48 650.578 118.394 650.578 121.859ZM660.469 125.324C660.469 129.515 662.812 131 666.31 131H669.214V127.106H667.069C665.617 127.106 665.122 126.578 665.122 125.357V116.513H669.214V112.718H665.122V108.197H660.469V112.718H658.291V116.513H660.469V125.324ZM672.537 131H677.157V112.718H672.537V131ZM674.88 110.54C676.497 110.54 677.718 109.352 677.718 107.834C677.718 106.316 676.497 105.128 674.88 105.128C673.23 105.128 672.042 106.316 672.042 107.834C672.042 109.352 673.23 110.54 674.88 110.54ZM699.377 121.859C699.377 116.084 695.252 112.421 689.972 112.421C684.692 112.421 680.567 116.084 680.567 121.859C680.567 127.601 684.56 131.297 689.84 131.297C695.153 131.297 699.377 127.601 699.377 121.859ZM685.253 121.859C685.253 118.196 687.464 116.447 689.906 116.447C692.348 116.447 694.625 118.196 694.625 121.859C694.625 125.489 692.282 127.271 689.84 127.271C687.365 127.271 685.253 125.489 685.253 121.859ZM715.57 131H720.19V120.275C720.19 115.226 717.154 112.454 712.897 112.454C710.554 112.454 708.574 113.444 707.386 114.995V112.718H702.766V131H707.386V120.902C707.386 117.965 709.003 116.381 711.511 116.381C713.953 116.381 715.57 117.965 715.57 120.902V131ZM722.702 135.752H725.705L729.797 125.918H724.913L722.702 135.752ZM740.858 131H745.478V106.58H740.858V131ZM748.854 121.793C748.854 127.502 752.55 131.297 757.17 131.297C760.074 131.297 762.153 129.911 763.242 128.327V131H767.895V112.718H763.242V115.325C762.153 113.807 760.14 112.421 757.203 112.421C752.55 112.421 748.854 116.084 748.854 121.793ZM763.242 121.859C763.242 125.324 760.932 127.238 758.391 127.238C755.916 127.238 753.573 125.258 753.573 121.793C753.573 118.328 755.916 116.48 758.391 116.48C760.932 116.48 763.242 118.394 763.242 121.859ZM773.133 125.324C773.133 129.515 775.476 131 778.974 131H781.878V127.106H779.733C778.281 127.106 777.786 126.578 777.786 125.357V116.513H781.878V112.718H777.786V108.197H773.133V112.718H770.955V116.513H773.133V125.324ZM793.055 116.216C795.431 116.216 797.345 117.734 797.411 120.143H788.732C789.095 117.635 790.844 116.216 793.055 116.216ZM801.734 125.258H796.751C796.157 126.479 795.068 127.469 793.088 127.469C790.778 127.469 788.93 125.951 788.699 123.245H802.064C802.163 122.651 802.196 122.057 802.196 121.463C802.196 116.018 798.467 112.421 793.187 112.421C787.775 112.421 784.013 116.084 784.013 121.859C784.013 127.601 787.874 131.297 793.187 131.297C797.708 131.297 800.744 128.624 801.734 125.258ZM819.759 125.786C819.627 119.087 809.496 121.166 809.496 117.833C809.496 116.777 810.387 116.084 812.103 116.084C813.918 116.084 815.04 117.041 815.172 118.46H819.594C819.33 114.83 816.657 112.421 812.235 112.421C807.714 112.421 805.008 114.863 805.008 117.899C805.008 124.598 815.337 122.519 815.337 125.786C815.337 126.842 814.347 127.667 812.532 127.667C810.684 127.667 809.397 126.611 809.232 125.225H804.579C804.777 128.624 807.978 131.297 812.565 131.297C817.02 131.297 819.759 128.921 819.759 125.786ZM824.277 125.324C824.277 129.515 826.62 131 830.118 131H833.022V127.106H830.877C829.425 127.106 828.93 126.578 828.93 125.357V116.513H833.022V112.718H828.93V108.197H824.277V112.718H822.099V116.513H824.277V125.324ZM857.012 131H861.632V120.275C861.632 115.226 858.596 112.454 854.339 112.454C851.996 112.454 850.016 113.444 848.828 114.995V112.718H844.208V131H848.828V120.902C848.828 117.965 850.445 116.381 852.953 116.381C855.395 116.381 857.012 117.965 857.012 120.902V131ZM873.88 116.216C876.256 116.216 878.17 117.734 878.236 120.143H869.557C869.92 117.635 871.669 116.216 873.88 116.216ZM882.559 125.258H877.576C876.982 126.479 875.893 127.469 873.913 127.469C871.603 127.469 869.755 125.951 869.524 123.245H882.889C882.988 122.651 883.021 122.057 883.021 121.463C883.021 116.018 879.292 112.421 874.012 112.421C868.6 112.421 864.838 116.084 864.838 121.859C864.838 127.601 868.699 131.297 874.012 131.297C878.533 131.297 881.569 128.624 882.559 125.258ZM889.726 131H894.742L898.075 118.229L901.408 131H906.391L911.737 112.718H907.315L904.081 126.611L900.649 112.718H895.765L892.267 126.644L889.033 112.718H884.347L889.726 131ZM928.426 125.786C928.294 119.087 918.163 121.166 918.163 117.833C918.163 116.777 919.054 116.084 920.77 116.084C922.585 116.084 923.707 117.041 923.839 118.46H928.261C927.997 114.83 925.324 112.421 920.902 112.421C916.381 112.421 913.675 114.863 913.675 117.899C913.675 124.598 924.004 122.519 924.004 125.786C924.004 126.842 923.014 127.667 921.199 127.667C919.351 127.667 918.064 126.611 917.899 125.225H913.246C913.444 128.624 916.645 131.297 921.232 131.297C925.687 131.297 928.426 128.921 928.426 125.786ZM938.894 121.793C938.894 127.502 942.59 131.297 947.21 131.297C950.114 131.297 952.193 129.911 953.282 128.327V131H957.935V112.718H953.282V115.325C952.193 113.807 950.18 112.421 947.243 112.421C942.59 112.421 938.894 116.084 938.894 121.793ZM953.282 121.859C953.282 125.324 950.972 127.238 948.431 127.238C945.956 127.238 943.613 125.258 943.613 121.793C943.613 118.328 945.956 116.48 948.431 116.48C950.972 116.48 953.282 118.394 953.282 121.859ZM975.251 131H979.871V120.275C979.871 115.226 976.835 112.454 972.578 112.454C970.235 112.454 968.255 113.444 967.067 114.995V112.718H962.447V131H967.067V120.902C967.067 117.965 968.684 116.381 971.192 116.381C973.634 116.381 975.251 117.965 975.251 120.902V131ZM983.077 121.793C983.077 127.502 986.773 131.297 991.426 131.297C994.297 131.297 996.343 129.977 997.432 128.294V131H1002.12V106.58H997.432V115.259C996.178 113.543 993.868 112.421 991.459 112.421C986.773 112.421 983.077 116.084 983.077 121.793ZM997.465 121.859C997.465 125.324 995.155 127.238 992.614 127.238C990.139 127.238 987.796 125.258 987.796 121.793C987.796 118.328 990.139 116.48 992.614 116.48C995.155 116.48 997.465 118.394 997.465 121.859ZM1032.15 121.859C1032.15 116.084 1028.02 112.421 1022.74 112.421C1017.46 112.421 1013.34 116.084 1013.34 121.859C1013.34 127.601 1017.33 131.297 1022.61 131.297C1027.92 131.297 1032.15 127.601 1032.15 121.859ZM1018.02 121.859C1018.02 118.196 1020.24 116.447 1022.68 116.447C1025.12 116.447 1027.4 118.196 1027.4 121.859C1027.4 125.489 1025.05 127.271 1022.61 127.271C1020.14 127.271 1018.02 125.489 1018.02 121.859ZM1036.26 125.324C1036.26 129.515 1038.61 131 1042.1 131H1045.01V127.106H1042.86C1041.41 127.106 1040.92 126.578 1040.92 125.357V116.513H1045.01V112.718H1040.92V108.197H1036.26V112.718H1034.09V116.513H1036.26V125.324ZM1048.33 131H1052.95V120.902C1052.95 117.965 1054.57 116.381 1057.08 116.381C1059.52 116.381 1061.14 117.965 1061.14 120.902V131H1065.76V120.275C1065.76 115.226 1062.75 112.454 1058.63 112.454C1056.19 112.454 1054.14 113.444 1052.95 114.995V106.58H1048.33V131ZM1078 116.216C1080.38 116.216 1082.29 117.734 1082.36 120.143H1073.68C1074.04 117.635 1075.79 116.216 1078 116.216ZM1086.68 125.258H1081.7C1081.1 126.479 1080.02 127.469 1078.04 127.469C1075.73 127.469 1073.88 125.951 1073.65 123.245H1087.01C1087.11 122.651 1087.14 122.057 1087.14 121.463C1087.14 116.018 1083.41 112.421 1078.13 112.421C1072.72 112.421 1068.96 116.084 1068.96 121.859C1068.96 127.601 1072.82 131.297 1078.13 131.297C1082.66 131.297 1085.69 128.624 1086.68 125.258ZM1095.14 121.892C1095.14 118.361 1096.79 117.305 1099.52 117.305H1100.75V112.454C1098.2 112.454 1096.29 113.675 1095.14 115.556V112.718H1090.52V131H1095.14V121.892ZM400.287 185H404.907V166.718H400.287V185ZM402.63 164.54C404.247 164.54 405.468 163.352 405.468 161.834C405.468 160.316 404.247 159.128 402.63 159.128C400.98 159.128 399.792 160.316 399.792 161.834C399.792 163.352 400.98 164.54 402.63 164.54ZM422.276 185H426.896V174.275C426.896 169.226 423.86 166.454 419.603 166.454C417.26 166.454 415.28 167.444 414.092 168.995V166.718H409.472V185H414.092V174.902C414.092 171.965 415.709 170.381 418.217 170.381C420.659 170.381 422.276 171.965 422.276 174.902V185ZM432.015 179.324C432.015 183.515 434.358 185 437.856 185H440.76V181.106H438.615C437.163 181.106 436.668 180.578 436.668 179.357V170.513H440.76V166.718H436.668V162.197H432.015V166.718H429.837V170.513H432.015V179.324ZM451.937 170.216C454.313 170.216 456.227 171.734 456.293 174.143H447.614C447.977 171.635 449.726 170.216 451.937 170.216ZM460.616 179.258H455.633C455.039 180.479 453.95 181.469 451.97 181.469C449.66 181.469 447.812 179.951 447.581 177.245H460.946C461.045 176.651 461.078 176.057 461.078 175.463C461.078 170.018 457.349 166.421 452.069 166.421C446.657 166.421 442.895 170.084 442.895 175.859C442.895 181.601 446.756 185.297 452.069 185.297C456.59 185.297 459.626 182.624 460.616 179.258ZM469.07 175.892C469.07 172.361 470.72 171.305 473.459 171.305H474.68V166.454C472.139 166.454 470.225 167.675 469.07 169.556V166.718H464.45V185H469.07V175.892ZM485.646 170.216C488.022 170.216 489.936 171.734 490.002 174.143H481.323C481.686 171.635 483.435 170.216 485.646 170.216ZM494.325 179.258H489.342C488.748 180.479 487.659 181.469 485.679 181.469C483.369 181.469 481.521 179.951 481.29 177.245H494.655C494.754 176.651 494.787 176.057 494.787 175.463C494.787 170.018 491.058 166.421 485.778 166.421C480.366 166.421 476.604 170.084 476.604 175.859C476.604 181.601 480.465 185.297 485.778 185.297C490.299 185.297 493.335 182.624 494.325 179.258ZM512.349 179.786C512.217 173.087 502.086 175.166 502.086 171.833C502.086 170.777 502.977 170.084 504.693 170.084C506.508 170.084 507.63 171.041 507.762 172.46H512.184C511.92 168.83 509.247 166.421 504.825 166.421C500.304 166.421 497.598 168.863 497.598 171.899C497.598 178.598 507.927 176.519 507.927 179.786C507.927 180.842 506.937 181.667 505.122 181.667C503.274 181.667 501.987 180.611 501.822 179.225H497.169C497.367 182.624 500.568 185.297 505.155 185.297C509.61 185.297 512.349 182.921 512.349 179.786ZM516.868 179.324C516.868 183.515 519.211 185 522.709 185H525.613V181.106H523.468C522.016 181.106 521.521 180.578 521.521 179.357V170.513H525.613V166.718H521.521V162.197H516.868V166.718H514.69V170.513H516.868V179.324ZM528.936 185H533.556V166.718H528.936V185ZM531.279 164.54C532.896 164.54 534.117 163.352 534.117 161.834C534.117 160.316 532.896 159.128 531.279 159.128C529.629 159.128 528.441 160.316 528.441 161.834C528.441 163.352 529.629 164.54 531.279 164.54ZM550.924 185H555.544V174.275C555.544 169.226 552.508 166.454 548.251 166.454C545.908 166.454 543.928 167.444 542.74 168.995V166.718H538.12V185H542.74V174.902C542.74 171.965 544.357 170.381 546.865 170.381C549.307 170.381 550.924 171.965 550.924 174.902V185ZM558.75 175.793C558.75 181.502 562.446 185.297 567.099 185.297C569.97 185.297 572.049 183.878 573.138 182.294V185.132C573.138 188.531 571.158 189.983 568.617 189.983C566.307 189.983 564.591 188.894 564.129 187.244H559.542C560.004 191.435 563.601 194.009 568.749 194.009C574.755 194.009 577.791 190.082 577.791 185.132V166.718H573.138V169.325C572.049 167.741 569.97 166.421 567.099 166.421C562.446 166.421 558.75 170.084 558.75 175.793ZM573.138 175.859C573.138 179.324 570.828 181.238 568.287 181.238C565.812 181.238 563.469 179.258 563.469 175.793C563.469 172.328 565.812 170.48 568.287 170.48C570.828 170.48 573.138 172.394 573.138 175.859ZM607.821 175.859C607.821 170.084 603.696 166.421 598.416 166.421C593.136 166.421 589.011 170.084 589.011 175.859C589.011 181.601 593.004 185.297 598.284 185.297C603.597 185.297 607.821 181.601 607.821 175.859ZM593.697 175.859C593.697 172.196 595.908 170.447 598.35 170.447C600.792 170.447 603.069 172.196 603.069 175.859C603.069 179.489 600.726 181.271 598.284 181.271C595.809 181.271 593.697 179.489 593.697 175.859ZM611.705 185H616.391V170.513H619.592V166.718H616.391V165.959C616.391 163.913 617.15 163.187 619.394 163.253V159.359C614.246 159.227 611.705 161.306 611.705 165.794V166.718H609.626V170.513H611.705V185ZM623.081 185H627.767V170.513H630.968V166.718H627.767V165.959C627.767 163.913 628.526 163.187 630.77 163.253V159.359C625.622 159.227 623.081 161.306 623.081 165.794V166.718H621.002V170.513H623.081V185ZM641.816 170.216C644.192 170.216 646.106 171.734 646.172 174.143H637.493C637.856 171.635 639.605 170.216 641.816 170.216ZM650.495 179.258H645.512C644.918 180.479 643.829 181.469 641.849 181.469C639.539 181.469 637.691 179.951 637.46 177.245H650.825C650.924 176.651 650.957 176.057 650.957 175.463C650.957 170.018 647.228 166.421 641.948 166.421C636.536 166.421 632.774 170.084 632.774 175.859C632.774 181.601 636.635 185.297 641.948 185.297C646.469 185.297 649.505 182.624 650.495 179.258ZM658.949 175.892C658.949 172.361 660.599 171.305 663.338 171.305H664.559V166.454C662.018 166.454 660.104 167.675 658.949 169.556V166.718H654.329V185H658.949V175.892ZM681.861 179.786C681.729 173.087 671.598 175.166 671.598 171.833C671.598 170.777 672.489 170.084 674.205 170.084C676.02 170.084 677.142 171.041 677.274 172.46H681.696C681.432 168.83 678.759 166.421 674.337 166.421C669.816 166.421 667.11 168.863 667.11 171.899C667.11 178.598 677.439 176.519 677.439 179.786C677.439 180.842 676.449 181.667 674.634 181.667C672.786 181.667 671.499 180.611 671.334 179.225H666.681C666.879 182.624 670.08 185.297 674.667 185.297C679.122 185.297 681.861 182.921 681.861 179.786ZM692.329 175.793C692.329 181.502 696.025 185.297 700.645 185.297C703.549 185.297 705.628 183.911 706.717 182.327V185H711.37V166.718H706.717V169.325C705.628 167.807 703.615 166.421 700.678 166.421C696.025 166.421 692.329 170.084 692.329 175.793ZM706.717 175.859C706.717 179.324 704.407 181.238 701.866 181.238C699.391 181.238 697.048 179.258 697.048 175.793C697.048 172.328 699.391 170.48 701.866 170.48C704.407 170.48 706.717 172.394 706.717 175.859ZM720.502 169.391V160.58H715.882V185H720.502V182.393C721.624 183.977 723.67 185.297 726.541 185.297C731.227 185.297 734.89 181.502 734.89 175.793C734.89 170.084 731.227 166.421 726.541 166.421C723.769 166.421 721.624 167.708 720.502 169.391ZM730.171 175.793C730.171 179.258 727.828 181.238 725.32 181.238C722.845 181.238 720.502 179.324 720.502 175.859C720.502 172.394 722.845 170.48 725.32 170.48C727.828 170.48 730.171 172.328 730.171 175.793ZM755.902 175.859C755.902 170.084 751.777 166.421 746.497 166.421C741.217 166.421 737.092 170.084 737.092 175.859C737.092 181.601 741.085 185.297 746.365 185.297C751.678 185.297 755.902 181.601 755.902 175.859ZM741.778 175.859C741.778 172.196 743.989 170.447 746.431 170.447C748.873 170.447 751.15 172.196 751.15 175.859C751.15 179.489 748.807 181.271 746.365 181.271C743.89 181.271 741.778 179.489 741.778 175.859ZM776.55 166.718H771.897V176.783C771.897 179.72 770.313 181.304 767.805 181.304C765.363 181.304 763.746 179.72 763.746 176.783V166.718H759.126V177.443C759.126 182.459 762.195 185.231 766.452 185.231C768.729 185.231 770.742 184.241 771.897 182.69V185H776.55V166.718ZM781.835 179.324C781.835 183.515 784.178 185 787.676 185H790.58V181.106H788.435C786.983 181.106 786.488 180.578 786.488 179.357V170.513H790.58V166.718H786.488V162.197H781.835V166.718H779.657V170.513H781.835V179.324ZM800.644 173.45C800.644 180.347 805.693 185.198 812.326 185.198C817.441 185.198 821.599 182.492 823.15 177.74H817.837C816.748 179.984 814.768 181.073 812.293 181.073C808.267 181.073 805.396 178.103 805.396 173.45C805.396 168.764 808.267 165.827 812.293 165.827C814.768 165.827 816.748 166.916 817.837 169.127H823.15C821.599 164.408 817.441 161.669 812.326 161.669C805.693 161.669 800.644 166.553 800.644 173.45ZM844.751 175.859C844.751 170.084 840.626 166.421 835.346 166.421C830.066 166.421 825.941 170.084 825.941 175.859C825.941 181.601 829.934 185.297 835.214 185.297C840.527 185.297 844.751 181.601 844.751 175.859ZM830.627 175.859C830.627 172.196 832.838 170.447 835.28 170.447C837.722 170.447 839.999 172.196 839.999 175.859C839.999 179.489 837.656 181.271 835.214 181.271C832.739 181.271 830.627 179.489 830.627 175.859ZM852.76 169.391V160.58H848.14V185H852.76V182.393C853.882 183.977 855.928 185.297 858.799 185.297C863.485 185.297 867.148 181.502 867.148 175.793C867.148 170.084 863.485 166.421 858.799 166.421C856.027 166.421 853.882 167.708 852.76 169.391ZM862.429 175.793C862.429 179.258 860.086 181.238 857.578 181.238C855.103 181.238 852.76 179.324 852.76 175.859C852.76 172.394 855.103 170.48 857.578 170.48C860.086 170.48 862.429 172.328 862.429 175.793ZM870.505 185H875.125V174.902C875.125 171.965 876.742 170.381 879.25 170.381C881.692 170.381 883.309 171.965 883.309 174.902V185H887.929V174.275C887.929 169.226 884.926 166.454 880.801 166.454C878.359 166.454 876.313 167.444 875.125 168.995V160.58H870.505V185ZM891.134 175.793C891.134 181.502 894.83 185.297 899.45 185.297C902.354 185.297 904.433 183.911 905.522 182.327V185H910.175V166.718H905.522V169.325C904.433 167.807 902.42 166.421 899.483 166.421C894.83 166.421 891.134 170.084 891.134 175.793ZM905.522 175.859C905.522 179.324 903.212 181.238 900.671 181.238C898.196 181.238 895.853 179.258 895.853 175.793C895.853 172.328 898.196 170.48 900.671 170.48C903.212 170.48 905.522 172.394 905.522 175.859ZM940.263 185H944.883V174.275C944.883 169.226 941.781 166.454 937.392 166.454C934.719 166.454 932.31 167.873 931.122 169.952C929.868 167.675 927.525 166.454 924.687 166.454C922.41 166.454 920.463 167.411 919.308 168.929V166.718H914.688V185H919.308V174.902C919.308 171.998 920.925 170.48 923.433 170.48C925.875 170.48 927.492 171.998 927.492 174.902V185H932.112V174.902C932.112 171.998 933.729 170.48 936.204 170.48C938.646 170.48 940.263 171.998 940.263 174.902V185Z" fill="#5E6282"/>
<circle cx="1242" cy="35" r="35" fill="url(#paint3_linear_1_440)"/>
<path d="M1259.61 23.9904C1260.3 25.1878 1260.21 26.6136 1259.37 27.711L1240.89 51.8182C1240.13 52.8123 1238.88 53.3191 1237.59 53.0729C1236.34 52.8313 1235.34 51.9156 1235 50.6841L1232.26 40.9555L1231.98 39.9435L1231.24 39.191L1224.19 31.9595C1223.29 31.0444 1223 29.724 1223.42 28.5154C1223.83 27.3206 1224.87 26.4536 1226.15 26.2856L1256.27 22.3404C1257.64 22.1604 1258.92 22.793 1259.61 23.9904Z" fill="white"/>
<path d="M1232.26 40.9555L1235 50.6841C1235.34 51.9157 1236.34 52.8313 1237.59 53.0729C1238.88 53.3192 1240.13 52.8124 1240.89 51.8182L1259.37 27.7111C1260.21 26.6137 1260.3 25.1879 1259.61 23.9905L1231.98 39.9436L1232.26 40.9555Z" fill="white"/>
<path d="M1243.22 33.4515C1243.5 33.9385 1243.34 34.5616 1242.85 34.8431L1232.26 40.9553L1231.98 39.9434L1231.24 39.1909L1241.83 33.0787C1242.32 32.7973 1242.94 32.9646 1243.22 33.4515Z" fill="url(#paint4_linear_1_440)"/>
<path d="M1232.26 40.9554L1242.85 34.8432C1243.34 34.5617 1243.5 33.9387 1243.22 33.4517L1231.98 39.9435L1232.26 40.9554Z" fill="url(#paint5_linear_1_440)"/>
<defs>
<linearGradient id="paint0_linear_1_440" x1="1180.24" y1="22.8623" x2="998.232" y2="367.287" gradientUnits="userSpaceOnUse">
<stop stop-color="#747DEF"/>
<stop offset="1" stop-color="#5E3BE1"/>
</linearGradient>
<linearGradient id="paint1_linear_1_440" x1="736.035" y1="72.4669" x2="487.704" y2="543.066" gradientUnits="userSpaceOnUse">
<stop stop-color="#747DEF"/>
<stop offset="1" stop-color="#5E3BE1"/>
</linearGradient>
<linearGradient id="paint2_linear_1_440" x1="874" y1="274" x2="874" y2="342" gradientUnits="userSpaceOnUse">
<stop stop-color="#FF946D"/>
<stop offset="1" stop-color="#FF7D68"/>
</linearGradient>
<linearGradient id="paint3_linear_1_440" x1="1256.65" y1="1.96393" x2="1226.56" y2="77.7643" gradientUnits="userSpaceOnUse">
<stop stop-color="#747DEF"/>
<stop offset="1" stop-color="#5E3BE1"/>
</linearGradient>
<linearGradient id="paint4_linear_1_440" x1="1239.41" y1="34.5441" x2="1240.55" y2="36.8251" gradientUnits="userSpaceOnUse">
<stop stop-color="#747DEF"/>
<stop offset="1" stop-color="#5E3BE1"/>
</linearGradient>
<linearGradient id="paint5_linear_1_440" x1="1239.9" y1="35.4017" x2="1240.51" y2="36.5259" gradientUnits="userSpaceOnUse">
<stop stop-color="#747DEF"/>
<stop offset="1" stop-color="#5E3BE1"/>
</linearGradient>
</defs>
</svg>
